<svg width="49" height="49" viewBox="0 0 49 49" fill="none" xmlns="http://www.w3.org/2000/svg">
<path fill-rule="evenodd" clip-rule="evenodd" d="M27.7237 42.0095C21.4274 43.482 14.2361 41.128 11.9989 31.5617C11.0172 27.364 12.8939 23.5602 14.8744 19.5458C16.2005 16.8581 17.5731 14.076 18.1656 11.018C18.3745 9.94003 19.457 9.20785 20.4412 9.6947C23.9216 11.4163 28.5793 15.1309 28.9493 21.0393C29.3896 20.34 29.8721 19.3615 30.2988 18.4162C30.8088 17.2863 32.3383 16.9767 33.1684 17.8975C34.9217 19.8422 36.9443 22.4614 37.6685 25.5584C39.0109 31.2982 37.4104 39.7441 27.7237 42.0095ZM29.066 28.8315C29.3443 29.0028 29.5952 29.1571 29.8025 29.296C34.0372 32.1329 32.2748 38.4442 27.8901 39.4696C20.0166 41.311 18.5736 27.5325 24.5547 23.2286C24.4692 26.0028 27.3126 27.7525 29.066 28.8315Z" fill="#FC8A38"/>
</svg>
