<svg width="24" height="24" viewBox="0 0 24 24" fill="none" xmlns="http://www.w3.org/2000/svg">
<path fill-rule="evenodd" clip-rule="evenodd" d="M19.8221 12.0712C21.3926 10.4533 21.3926 7.80634 19.8221 6.18847C18.2837 4.60384 15.8149 4.60384 14.2766 6.18847C14.2699 6.19531 14.2623 6.20328 14.2537 6.21222C14.1747 6.29423 14.0166 6.45849 13.8438 6.59311C12.7597 7.43778 11.2403 7.43778 10.1562 6.59311C9.9834 6.45849 9.82528 6.29424 9.74634 6.21222C9.73773 6.20328 9.73006 6.19531 9.72342 6.18847C8.1851 4.60384 5.71626 4.60384 4.17794 6.18847C2.60735 7.80634 2.60735 10.4533 4.17794 12.0712L7.69492 15.694C9.08438 17.1253 9.98763 18.0495 10.7419 18.6411C11.4505 19.1969 11.782 19.2574 12 19.2574C12.218 19.2574 12.5495 19.1969 13.2581 18.6411C14.0124 18.0495 14.9156 17.1253 16.3051 15.694L19.8221 12.0712ZM21.2571 4.79538C23.581 7.18922 23.581 11.0704 21.2571 13.4642L17.7401 17.0871C15.0412 19.8673 13.6917 21.2574 12 21.2574C10.3083 21.2574 8.95883 19.8673 6.25989 17.0871L2.74291 13.4642C0.419029 11.0704 0.419029 7.18922 2.74291 4.79538C5.0668 2.40154 8.83456 2.40154 11.1584 4.79538C11.2733 4.9137 11.3307 4.97286 11.3854 5.01544C11.7468 5.297 12.2532 5.297 12.6146 5.01544C12.6693 4.97286 12.7267 4.9137 12.8416 4.79538C15.1654 2.40154 18.9332 2.40154 21.2571 4.79538Z" fill="#0B0C23"/>
</svg>
