<svg width="1440" height="962" viewBox="0 0 1440 962" fill="none" xmlns="http://www.w3.org/2000/svg">
<path d="M1153.5 387.314C1161.36 382.351 1172.33 380.205 1181.08 383.167C1196.83 388.5 1198.02 409.915 1188.21 417.63C1181.28 423.07 1176.52 416.776 1177.05 407.477C1178.76 377.176 1240.68 378.919 1255.03 406.06" stroke="#0B0C23" stroke-width="2" stroke-linecap="round"/>
<path d="M324.41 189.535C324.732 188.664 325.963 188.664 326.285 189.535L328.429 195.328C328.53 195.601 328.746 195.817 329.02 195.918L334.813 198.062C335.684 198.384 335.684 199.616 334.813 199.938L329.02 202.082C328.746 202.183 328.53 202.399 328.429 202.672L326.285 208.465C325.963 209.336 324.732 209.336 324.41 208.465L322.266 202.672C322.165 202.399 321.949 202.183 321.675 202.082L315.882 199.938C315.011 199.616 315.011 198.384 315.882 198.062L321.675 195.918C321.949 195.817 322.165 195.601 322.266 195.328L324.41 189.535Z" stroke="#0B0C23" stroke-width="2" stroke-linecap="round"/>
<path d="M415.026 776.053C415.902 775.745 416.688 776.693 416.223 777.497L414.689 780.149C414.543 780.402 414.515 780.706 414.611 780.981L415.626 783.872C415.934 784.748 414.986 785.534 414.182 785.069L411.53 783.535C411.277 783.389 410.973 783.36 410.698 783.457L407.807 784.472C406.931 784.78 406.145 783.831 406.61 783.028L408.144 780.375C408.29 780.123 408.318 779.819 408.222 779.544L407.207 776.653C406.899 775.777 407.847 774.991 408.651 775.456L411.303 776.99C411.556 777.136 411.86 777.164 412.135 777.068L415.026 776.053Z" stroke="#0B0C23" stroke-width="1.5" stroke-linecap="round"/>
<circle cx="1147.85" cy="124" r="4" fill="#FC8A38"/>
<circle cx="1019.85" cy="835.5" r="6.5" fill="#8279E6"/>
<circle cx="187.847" cy="343.5" r="4.5" fill="#F372B0"/>
</svg>
