<svg width="64" height="64" viewBox="0 0 64 64" fill="none" xmlns="http://www.w3.org/2000/svg">
<path d="M11.6479 19C9.52592 20.0447 6.14687 22.2636 4.64795 23.5C3.334 24.5835 1.91032 25.3134 2.14833 27C2.26599 27.8326 3.40291 31.0114 3.64805 32C8.25759 50.5892 20.5764 53.2464 29.7817 54.2523C35.5461 54.8821 42.0757 54.198 47.2036 51.4916C60.6479 43.5 63.161 27.9706 62.6479 20.5C62.5227 18.6748 59.8711 17.1142 58.1479 16.5C50.5218 13.783 44.0934 12.5 37.6479 12.5C26.2378 12.5 19.2255 15.2694 11.6479 19Z" fill="url(#paint0_linear_7_37703)"/>
<path d="M52.1292 30.2842C51.4027 34.5831 50.7114 37.0278 48.4106 40.7482C49.1014 41.7002 49.7878 42.6558 50.4658 43.6177C51.363 44.8906 52.2446 46.1747 53.1182 47.4646C64.0368 37.9157 62.7797 24.5796 62.3354 18.1003C62.2097 16.2752 59.4058 16.509 57.6479 16C54.8926 15.2031 53.521 12.9332 50.6479 12.5C51.5946 13.8643 45.0709 12.8928 45.5001 14.5C53.0786 17.0914 52.8 26.3134 52.1292 30.2842Z" fill="#495AB6"/>
<path d="M21.8927 36.8464C20.2828 37.2529 18.8498 38.3244 18.031 39.9182C16.9038 42.1129 17.2608 44.6789 18.7353 46.4706C19.0624 46.8678 19.0339 47.4463 18.6836 47.8234C16.9591 49.6811 15.1513 52.2368 14.723 53.0707C13.984 54.5095 14.5518 56.2749 15.9901 57.0135C17.4293 57.7529 19.1943 57.1855 19.9333 55.7468C20.3621 54.9124 21.3872 51.9515 21.8922 49.4667C21.997 48.9506 22.4676 48.6065 22.9936 48.6377C25.1758 48.7647 27.3504 47.6888 28.5146 45.7294C29.5081 44.0571 29.5941 42.1249 28.946 40.4705C28.7985 40.0943 28.2819 40.0591 28.0974 40.4183L26.2709 43.9751C26.0088 44.4849 25.3313 44.649 24.8598 44.267C24.517 43.9893 24.4372 43.495 24.6387 43.1028L26.5927 38.6773C26.8151 38.1728 26.6065 37.5827 26.1162 37.33L26.1042 37.3236L26.0806 37.311C25.589 37.0601 24.9868 37.2352 24.7074 37.7112L22.2453 41.9063C21.9832 42.4162 21.3053 42.5802 20.8346 42.1982C20.4914 41.921 20.4112 41.4267 20.6131 41.034L22.4244 37.5067C22.5893 37.1862 22.3446 36.8301 22.0117 36.8301C21.9729 36.8301 21.9332 36.8363 21.8927 36.8464Z" fill="url(#paint1_linear_7_37703)"/>
<path d="M56.3735 44.077C56.3561 44.0989 56.3432 44.1158 56.3262 44.1376C56.2099 44.2794 56.0985 44.4171 55.9781 44.5544C55.8578 44.7001 55.737 44.8423 55.6126 44.984C55.3978 45.2292 55.1741 45.4743 54.9463 45.715C54.8558 45.8135 54.7658 45.9084 54.6713 46.0029C54.1855 46.5012 53.6698 46.9871 53.1238 47.4649C52.9732 47.5977 52.8185 47.7265 52.6638 47.8598C52.35 48.1223 52.0278 48.3799 51.6922 48.634C51.546 48.7458 51.3998 48.8573 51.2496 48.9691C50.8324 49.274 50.3938 49.5793 49.9428 49.8762C49.8224 49.9573 49.6976 50.0348 49.5733 50.1168C49.3883 50.2367 49.1989 50.3531 49.0059 50.4694C48.4296 50.8215 46.6231 51.6693 46 52C40.5986 54.8524 23 53 23 53V51.5C25.2591 51.9001 36.5 53 42.5 50.1168C40.3909 49.5325 37.8707 42.2902 38.997 39.3846C39.3023 38.5979 47.8836 43.4454 48.2147 42.6329C49.6762 42.8005 51.1337 43.0153 52.5778 43.2779C53.8543 43.5056 55.1184 43.7717 56.3735 44.077Z" fill="#495AB6"/>
<path d="M17.8861 39.2979C16.7589 41.4926 17.2608 44.679 18.7352 46.4707C19.0623 46.8678 18.2869 47.073 17.9998 47.5C16.475 49.7682 14.1906 52.36 13.9998 53C13.5808 54.4035 14.5517 56.275 15.99 57.0136C17.4292 57.753 19.1943 57.1856 19.9333 55.7468C20.362 54.9125 21.3872 51.9516 21.8921 49.4668C21.9884 48.9925 25.8755 48.1038 26.3488 48.0771C21.1549 48.3432 19.2905 46.3276 18.8426 42.6822C18.5636 40.41 20.247 38.1743 21.5873 36.4636C20.8844 36.9909 18.3149 38.4635 17.8861 39.2979Z" fill="url(#paint2_linear_7_37703)"/>
<path d="M42.2445 35.0302C40.0052 37.1794 41.4515 42.3203 43.6003 44.5595C45.2107 46.2381 47.6108 46.6971 49.6553 45.918C50.1986 45.7112 50.8141 45.9244 51.0923 46.4355C51.103 46.4556 51.1128 46.472 51.1208 46.4868C52.2703 48.5268 54.0108 50.8365 54.6241 51.4485C55.6822 52.503 57.3951 52.5003 58.4501 51.4421C59.5051 50.384 59.5024 48.6712 58.4442 47.6162C57.8305 47.0042 55.5133 45.2695 53.4688 44.1262C53.4278 44.1031 53.3721 44.067 53.3056 44.0197C52.8836 43.7207 52.7142 43.1689 52.9001 42.6862C53.6564 40.7161 53.2678 38.4011 51.71 36.7774C50.2655 35.2722 47.498 34.03 45.1585 34.03C44.0175 34.03 42.9786 34.3256 42.2445 35.0302Z" fill="url(#paint3_linear_7_37703)"/>
<path d="M50.7693 36.3767C52.1251 39.4339 51.8207 41.5532 50.952 42.9777C49.522 45.3233 45.4999 46.5 42.9999 44C44.9999 47 48.3941 46.399 49.6554 45.9181C50.1988 45.7113 50.8143 45.9244 51.0924 46.4356C51.1031 46.4557 51.1129 46.4721 51.1209 46.4869C52.2704 48.5269 54.0109 50.8366 54.6242 51.4485C55.6823 52.5031 57.3952 52.5004 58.4502 51.4422C59.5052 50.3841 59.5021 48.6708 58.4444 47.6162C57.8306 47.0043 55.5134 45.2696 53.4689 44.1263C53.4279 44.1032 53.3722 44.0671 53.3058 44.0198C52.8837 43.7207 52.7143 43.169 52.9002 42.6863C53.6566 40.7162 53.2679 38.4012 51.7106 36.7775C51.3598 36.4129 50.9261 36.0666 50.4457 35.7461C50.5633 35.9502 50.6725 36.1588 50.7693 36.3767Z" fill="url(#paint4_linear_7_37703)"/>
<path d="M24.1258 30.0157C23.9631 29.9074 23.8165 29.7929 23.6752 29.677C23.5281 29.5718 23.3855 29.4644 23.2513 29.3579C22.9656 29.1698 22.7062 28.971 22.4446 28.8377C21.9218 28.544 21.4734 28.4129 20.9733 28.433C20.4732 28.4508 19.892 28.6666 19.3166 29.0147C18.7416 29.3494 18.1528 29.8307 17.6202 30.288L17.5609 30.3398C17.2824 30.5791 16.8625 30.547 16.6231 30.2684C16.4493 30.0656 16.419 29.7884 16.522 29.5606C16.9017 28.7249 17.4107 28.0408 18.0873 27.4061C18.7626 26.7968 19.6464 26.2611 20.7299 26.1153C21.8085 25.9633 22.9736 26.3181 23.7358 26.9443C24.5202 27.5603 25.0475 28.3323 25.3395 29.1613C25.4808 29.562 25.2704 30.0015 24.8697 30.1423C24.6343 30.2252 24.3852 30.1869 24.1913 30.0594L24.1258 30.0157Z" fill="#0A1931"/>
<path d="M47.4243 26.696C47.1016 26.5868 46.749 26.4322 46.4286 26.3029C46.0983 26.1772 45.7823 26.0493 45.4743 25.9455C44.8588 25.7382 44.2856 25.6009 43.827 25.6473C43.3768 25.6874 42.9703 25.8715 42.5589 26.3199C42.1422 26.7486 41.7838 27.365 41.4308 28.0256L41.4219 28.0425C41.2472 28.3701 40.8398 28.4936 40.5122 28.3189C40.2733 28.1909 40.1432 27.9391 40.1579 27.6851C40.2096 26.84 40.4222 25.9713 40.9218 25.1285C41.1808 24.7193 41.5066 24.2986 41.9621 23.9839C42.4065 23.6656 42.9427 23.4281 43.4869 23.3425C44.586 23.1629 45.5893 23.4325 46.396 23.8471C46.8034 24.0579 47.1751 24.3061 47.5063 24.5963C47.8459 24.8847 48.1312 25.1855 48.4048 25.5813C48.6433 25.9267 48.5573 26.4001 48.2119 26.639C48.0077 26.7798 47.7586 26.8075 47.5397 26.7353L47.4243 26.696Z" fill="#0A1931"/>
<path d="M27.8152 31.204C28.1802 31.2414 28.4543 31.3373 28.7534 31.475C29.0369 31.6225 29.3172 31.8026 29.5526 32.0433C30.0379 32.5099 30.3647 33.1718 30.4712 33.8413C30.5844 34.5178 30.4685 35.1606 30.2867 35.7409C30.1788 36.0221 30.0455 36.2891 29.9096 36.5467C29.7469 36.7883 29.5829 37.0254 29.3934 37.2407C29.1991 37.4618 28.8626 37.4836 28.6415 37.2893C28.5118 37.1752 28.4508 37.0125 28.4615 36.8529L28.4664 36.7812C28.4855 36.5191 28.5301 36.278 28.576 36.0417L28.6603 35.3553C28.683 34.9181 28.7039 34.5094 28.6313 34.1524C28.5595 33.7949 28.441 33.4789 28.2493 33.1517C28.0683 32.8295 27.7572 32.4934 27.4751 32.181L27.3757 32.0704C27.1832 31.8574 27.2001 31.528 27.4136 31.3355C27.5268 31.233 27.6748 31.1902 27.8152 31.204Z" fill="#0A1931"/>
<path d="M38.9936 30.23C38.8996 30.6904 38.777 31.174 38.7092 31.6045C38.6406 32.0431 38.6103 32.4509 38.6393 32.8342C38.6446 33.0295 38.6963 33.2082 38.7244 33.399C38.7953 33.575 38.8278 33.7702 38.9299 33.949C39.0761 34.3345 39.3564 34.6866 39.6283 35.1185L39.6787 35.1983C39.8329 35.4434 39.7593 35.767 39.5142 35.9217C39.3622 36.0171 39.1763 36.0237 39.023 35.9573C38.7494 35.8361 38.4699 35.706 38.2176 35.5219C37.976 35.3231 37.7184 35.1279 37.5259 34.8555C37.307 34.6068 37.16 34.2993 37.0133 33.9926C36.9037 33.6722 36.8029 33.3415 36.7807 33.0045C36.7142 32.3328 36.8306 31.6714 37.0744 31.0995C37.3249 30.521 37.6542 30.0329 38.1588 29.6189C38.3848 29.4339 38.7186 29.4665 38.9036 29.6929C39.0083 29.8203 39.0435 29.9817 39.0137 30.1315L38.9936 30.23Z" fill="#0A1931"/>
<path d="M33.2259 35.6101C30.9381 35.6101 29.1842 34.6746 29.0634 34.609C28.6101 34.3608 28.4439 33.7929 28.6913 33.3392C28.9391 32.8873 29.5051 32.721 29.9584 32.9662C30.122 33.0544 33.8726 35.0186 37.0862 32.3105C37.4811 31.9785 38.0717 32.0279 38.4042 32.4233C38.7371 32.8182 38.6863 33.4087 38.2914 33.7412C36.5875 35.1769 34.7828 35.6101 33.2259 35.6101Z" fill="#0A1931"/>
<path d="M25.3848 33.5059C25.6456 35.0734 23.5851 36.5699 21 37C18.4144 37.4297 16.2839 36.6299 16.0231 35.0618C15.7624 33.4943 17.6469 31.875 20.232 31.4453C22.8175 31.0157 25.1245 31.9379 25.3848 33.5059Z" fill="#FFB3DD"/>
<path d="M50.9169 31.2306C51.0185 32.8169 49.1154 33.833 46.5 34.0001C43.8846 34.1677 41.5471 33.4222 41.4455 31.8364C41.3443 30.2505 43.3821 28.8292 45.9975 28.662C48.613 28.4949 50.8152 29.6448 50.9169 31.2306Z" fill="#FFB3DD"/>
<path d="M12.399 20.7343C11.6627 21.4215 10.9072 22.0812 10.15 22.7377C9.9329 22.8946 9.84376 23.0778 9.69846 23.2409C9.58436 23.4223 9.4444 23.5801 9.3508 23.7575C9.13241 24.0954 8.97908 24.435 8.87033 24.7737C8.65505 25.4472 8.61048 26.155 8.68714 26.9844C8.7072 27.1921 8.73661 27.4012 8.76648 27.6187C8.79768 27.8282 8.83155 28.0764 8.88102 28.2534C8.90598 28.3514 8.92248 28.4419 8.95234 28.5467L9.04683 28.8734C9.10388 29.0878 9.18277 29.3169 9.25542 29.5419C9.8607 31.3609 10.5743 33.2306 11.2544 35.0968L13.2731 40.7195L13.2833 40.748C13.3569 40.953 13.2503 41.1785 13.0457 41.2521C12.8871 41.3091 12.7159 41.2579 12.6125 41.1371C11.9243 40.3299 11.3578 39.4933 10.8043 38.6371C10.2413 37.788 9.74125 36.9086 9.22957 36.0319C8.23742 34.2593 7.32148 32.4658 6.53971 30.527C6.44388 30.2805 6.34493 30.0411 6.25668 29.7764L6.12208 29.3877C6.07884 29.2531 6.04007 29.0993 6.0004 28.9554C5.91438 28.6505 5.86535 28.4036 5.8083 28.1201C5.75169 27.8447 5.7196 27.5567 5.68617 27.2666C5.56583 26.11 5.72317 24.7528 6.36321 23.606C6.97428 22.4444 8.03596 21.6627 8.99513 21.1724C9.85713 20.6509 10.7214 20.1325 11.6048 19.6423C12.2901 19.262 12.966 20.2047 12.399 20.7343Z" fill="white"/>
<path d="M13.9268 11.8208L14.0975 14.2847L13.9268 11.8208Z" fill="#9DED81"/>
<path d="M7.05859 14.6736L12.1575 15.1108L7.05859 14.6736Z" fill="#9DED81"/>
<path d="M4.96027 23.6746C6.39278 22.4801 7.96837 21.4701 9.63176 20.6255C13.0923 18.8698 16.8532 17.6192 20.6083 16.6703C23.2678 15.9986 26.2703 14.7309 28.9999 14.5C27.2184 11.3542 27.585 15.7111 21.9806 13.2191C20.6435 12.6241 17.9657 10.203 14.3991 11.7982C11.1022 11.2847 9.22138 12.3541 8.14811 13.5C6.39424 15.3738 6.79401 13.3526 2.64801 15.5C0.442631 16.6415 4.45171 23.7593 4.45171 23.7593C4.45171 23.7593 4.63356 23.7299 4.96027 23.6746Z" fill="#9DED81"/>
<path d="M6.27426 23.7185C7.22184 23.1801 8.187 22.0143 9.14795 21.5C11.8672 20.0452 14.4373 18.739 17.3264 17.664C17.2792 17.6208 17.2297 17.5793 17.1762 17.5436C16.8762 17.3435 13.7094 18.0673 13.3631 18C12.3816 17.8083 11.6129 18.2692 10.6479 18C9.77257 17.7553 8.90299 17.4665 8.08511 17.0667C7.08672 16.5786 6.28623 15.7648 5.9047 14.7058C5.90336 14.7004 5.90247 14.6955 5.90069 14.6906C5.48083 16.116 5.41359 14.1852 2.27891 15.8085C0.214826 16.8773 6.026 23.7595 6.026 23.7595C6.026 23.7595 6.11559 23.7453 6.27426 23.7185Z" fill="#2DA04B"/>
<path d="M31.5255 12.6528C32.9478 12.602 34.3705 12.6488 35.7928 12.676C37.3839 12.7063 38.9733 12.7714 40.5619 12.8699C41.7073 12.9412 42.851 13.0339 43.9943 13.1355C44.284 12.4348 44.3116 11.6464 43.8806 10.7795C42.0327 7.05645 38.7064 4.67146 34.5501 5.24286C28.5901 6.06252 27.3706 12.836 27.3706 12.836L28.0222 13.0535C29.1704 12.7999 30.3524 12.6947 31.5255 12.6528Z" fill="#FFCD5D"/>
<path d="M29.9635 12.4796L28.7703 12.0806C29.3253 10.3678 30.9035 6.91486 34.7081 6.39159C38.1009 5.92672 41.0644 7.71268 42.8423 11.2949C43.0866 11.7874 43.1151 12.2282 42.9315 12.6815C42.9159 12.7202 42.894 12.7581 42.8757 12.7965C43.6544 12.9155 44.4304 13.0501 45.2037 13.1963C45.493 12.2344 45.398 11.228 44.9193 10.2635C42.7033 5.79924 38.7676 3.4918 34.3921 4.0944C27.6752 5.01791 26.2855 12.3204 26.2298 12.6306L26.1001 13.3518C27.3623 12.9565 28.6545 12.6717 29.9635 12.4796Z" fill="#0A1931"/>
<path d="M37.1962 13.7422C38.1486 13.6905 39.1096 13.6959 40.0625 13.732C43.8725 13.8751 47.6512 14.4924 51.3778 15.2643C53.8475 15.7756 56.3011 16.3603 58.7494 16.9634C58.8225 16.8078 58.8318 16.6411 58.7619 16.462C57.4675 13.141 54.7919 11.4852 50.9517 10.8625C47.1123 10.2398 47.1694 7.69884 43.1241 7.45816C39.0793 7.21792 36.6306 11.8377 36.6306 11.8377L36.3359 13.818C36.6221 13.7846 36.9091 13.7578 37.1962 13.7422Z" fill="#FC74C7"/>
<path d="M54.208 14.8369C55.7822 15.3597 57.3253 15.973 58.8728 16.5689C58.9544 16.6001 59.035 16.6327 59.1162 16.6643C59.1113 16.5983 59.0997 16.5315 59.0725 16.462C57.7781 13.141 55.1021 11.4847 51.2627 10.862C51.1531 10.8447 49.9644 12.6337 46.0742 13.013C48.843 13.3005 51.5694 13.9606 54.208 14.8369Z" fill="#0A1931"/>
<path d="M37.7912 12.2384C38.2342 11.4954 40.2087 8.49624 43.0528 8.66338C44.8103 8.76768 45.5697 9.35156 46.5311 10.0905C47.5188 10.8496 48.638 11.7098 50.7587 12.0539C54.0761 12.5914 56.1843 13.9245 57.3325 16.2204C58.2293 16.4223 59.1193 16.6505 60.0059 16.8921C60.0357 16.6046 59.9978 16.3091 59.8864 16.0234C58.5047 12.4782 55.645 10.4003 51.1447 9.67069C49.6257 9.4251 48.8734 8.84657 48.0024 8.17667C46.9202 7.34497 45.6937 6.40185 43.1959 6.25343C38.4375 5.9704 35.679 11.056 35.564 11.2726L35.4673 11.4553L35.145 13.6219C35.9665 13.5194 36.791 13.4463 37.6183 13.4004L37.7912 12.2384Z" fill="#0A1931"/>
<path d="M24.8701 14.3729C27.6718 13.6745 30.5328 13.2069 33.4206 13.0732C34.345 13.0304 35.2667 13.0505 36.1875 13.0973C35.3095 10.4132 32.4409 8.4423 29.029 8.4423C24.9191 8.4423 21.5874 11.2984 21.5874 14.8209C21.5874 14.9234 21.5999 15.0241 21.6057 15.1257C22.7021 14.9167 23.7874 14.6426 24.8701 14.3729Z" fill="#FC9A38"/>
<path d="M22.8378 14.2331C23.1908 11.6578 25.8312 9.64944 29.0292 9.64944C31.2194 9.64944 33.1458 10.5935 34.2583 12.0144C35.184 11.9511 36.1106 11.9333 37.0359 11.9654C35.7465 9.19482 32.6457 7.23548 29.0292 7.23548C24.277 7.23548 20.4105 10.6149 20.3833 14.7773C21.2043 14.6084 22.0222 14.4257 22.8378 14.2331Z" fill="#0A1931"/>
<path d="M6.14825 21.8469C4.57891 19.5377 3.38306 17.1942 3.38752 16.3758C5.02016 15.5562 6.08318 15.3873 6.94251 15.2509C8.0189 15.0802 9.03557 14.9193 10.1534 13.7252C10.7627 13.074 12.9935 13.4212 15.1507 13.7573L15.5033 13.8121L15.8291 13.6664C17.9774 12.7054 19.6497 13.6904 20.9935 14.482C21.0225 14.4985 21.0466 14.5119 21.0742 14.5284C22.1845 14.1174 23.3014 13.7243 24.4251 13.3539C24.0048 13.2327 23.5105 13.0531 22.9221 12.7914C22.7523 12.7161 22.4929 12.5632 22.2188 12.4019C20.8393 11.5894 18.3144 10.1025 15.1855 11.3197C12.1885 10.8557 9.82001 10.5495 8.39107 12.0752C7.83928 12.6649 7.49252 12.7197 6.56499 12.8672C5.55902 13.0263 4.18089 13.2447 2.1012 14.3216C1.56367 14.6001 1.18972 15.0918 1.04843 15.7059C0.916948 16.2769 0.799727 18.4591 4.34179 23.4907C4.90338 22.9002 5.50955 22.3542 6.14825 21.8469Z" fill="#0A1931"/>
<path d="M24.3712 10.1993C24.3712 10.1993 22.4939 13.7115 33.6955 11.9773L22.1574 15.0598C22.1574 15.0598 21.0275 12.6989 24.3712 10.1993Z" fill="#0A1931"/>
<path d="M32.855 8.15346C32.855 8.15346 36.3431 9.86766 38.934 8.01395L36.0039 11.2632L32.855 8.15346Z" fill="#0A1931"/>
<path d="M58.4503 51.4422C57.9217 51.9721 57.2281 52.2373 56.5342 52.2373C55.8433 52.2373 55.1525 51.9743 54.6243 51.4484C54.011 50.8369 52.2705 48.5268 51.1206 46.4868C51.1125 46.4725 51.1032 46.4551 51.0925 46.4355C50.8852 46.0553 50.4917 45.84 50.0798 45.84C49.9381 45.84 49.7946 45.8654 49.6555 45.918C49.0106 46.1641 48.3309 46.2866 47.6511 46.2866C46.1758 46.2866 44.7028 45.709 43.6005 44.56C41.4513 42.3203 40.005 37.1794 42.2442 35.0302C42.9788 34.326 44.0177 34.0305 45.1587 34.0305C47.4978 34.0305 50.2657 35.2727 51.7098 36.7778C53.268 38.4011 53.6567 40.7166 52.8998 42.6862C52.7144 43.1689 52.8838 43.7211 53.3059 44.0197C53.3723 44.067 53.428 44.1031 53.469 44.1263C55.5135 45.2695 57.8307 47.0042 58.444 47.6162C59.5026 48.6712 59.5053 50.3841 58.4503 51.4422ZM23.8252 51.7818C23.8908 51.5331 23.9549 51.2839 24.0151 51.0348C26.7255 50.8177 29.2019 49.2987 30.5902 46.9628C31.9274 44.7119 32.1476 42.0252 31.1942 39.5907C30.8269 38.6529 30.0229 37.9937 29.065 37.8074C28.9211 36.7195 28.2623 35.7202 27.222 35.184L27.1792 35.1626C26.6943 34.9148 26.151 34.7837 25.6072 34.7837C25.0304 34.7837 24.4711 34.9299 23.9763 35.1951C23.4482 34.704 22.7448 34.4174 22.0121 34.4174C21.7732 34.4174 21.5343 34.4472 21.3016 34.5061C18.9617 35.0971 16.9872 36.6682 15.8845 38.8156C14.5362 41.4404 14.6712 44.5426 16.1706 47.0154C15.9473 47.2752 15.7245 47.5431 15.5038 47.8136C10.1557 44.0099 6 38 4.14795 29.5C3.43355 26.2213 5.45752 23.7848 8 22.5C23.8252 14.5032 38.7161 12.3542 55.5 16.5C59.5484 17.5 61 19 61 23C61 29.6152 60.1878 36.0187 55.5117 42.322C56.047 39.7543 55.2986 37.031 53.4521 35.1064C51.4798 33.0513 48.0697 31.6165 45.1587 31.6165C43.2988 31.6165 41.7129 32.1942 40.5728 33.2888C38.9433 34.8519 38.3514 37.3118 38.9054 40.2143C39.3444 42.5124 40.4485 44.7619 41.8587 46.2314C43.3866 47.8234 45.4435 48.7006 47.6511 48.7006C48.0995 48.7006 48.5435 48.6623 48.9811 48.5892C41.5826 53.7488 32.3388 54.2321 23.8252 51.7818ZM22.994 48.6378C22.9722 48.6364 22.9503 48.6355 22.9289 48.6355C22.4293 48.6355 21.9929 48.972 21.8926 49.4668C21.3872 51.9521 20.3621 54.9125 19.9337 55.7468C19.4145 56.7577 18.3894 57.3385 17.3263 57.3385C16.8762 57.3385 16.4189 57.2337 15.9905 57.014C14.5518 56.275 13.9844 54.5095 14.7234 53.0708C15.1517 52.2369 16.9595 49.6816 18.684 47.8239C19.0339 47.4464 19.0628 46.8678 18.7357 46.4707C17.2613 44.679 16.9043 42.113 18.0315 39.9188C18.8502 38.324 20.2832 37.253 21.8931 36.8465C21.9337 36.8358 21.9738 36.8313 22.0121 36.8313C22.345 36.8313 22.5893 37.1879 22.4248 37.5079L20.6135 41.0353C20.4116 41.4279 20.4913 41.9222 20.8345 42.1999C21.0115 42.343 21.2174 42.4094 21.4197 42.4094C21.7558 42.4094 22.0816 42.2258 22.2452 41.9071L24.7078 37.7125C24.9012 37.3831 25.2488 37.1977 25.6072 37.1977C25.7672 37.1977 25.9294 37.2347 26.0805 37.3123L26.1046 37.3238L26.1166 37.3305C26.6065 37.5828 26.8151 38.1729 26.5927 38.677L24.6391 43.1029C24.4372 43.4956 24.517 43.9894 24.8602 44.2671C25.0371 44.4106 25.2431 44.477 25.4454 44.477C25.7819 44.477 26.1077 44.2934 26.2709 43.9752L28.0974 40.4189C28.1843 40.2499 28.3448 40.1679 28.5057 40.1679C28.6866 40.1679 28.8685 40.2718 28.9465 40.471C29.5945 42.1255 29.5085 44.0572 28.5146 45.7299C27.4128 47.585 25.4044 48.6476 23.3421 48.6476C23.2262 48.6476 23.1099 48.6444 22.994 48.6378ZM57.5602 43.8673C63.6201 35.1626 63.8561 25.1952 63.5 20C63.3502 17.8236 61.5222 15.7212 59.5 15C51.0879 12 43.4735 11.1022 33 12C21.3345 13 13 16.5 4.14795 22C2.51843 23.4174 1.00125 25.0043 1.14803 27.5C1.64795 36 6.28129 44.3222 13.9541 49.8354C13.3305 50.7018 12.8305 51.4725 12.5764 51.9681C11.9243 53.237 11.8058 54.6847 12.2421 56.0432C12.6789 57.4018 13.6185 58.5089 14.8879 59.161C15.6402 59.5479 16.4835 59.7524 17.3263 59.7524C19.3396 59.7524 21.1617 58.6395 22.0812 56.8495C22.333 56.3588 22.7078 55.4032 23.0916 54.2452C32.5142 56.984 42.6821 56.2774 50.7988 50.4692C51.6189 51.6418 52.426 52.6652 52.9199 53.1577C53.8862 54.1209 55.1698 54.6513 56.5342 54.6513C57.9047 54.6513 59.1924 54.1169 60.1596 53.1466C62.1528 51.1476 62.1474 47.8997 60.1489 45.9064C59.6697 45.4291 58.6909 44.6585 57.5602 43.8673Z" fill="#0A1931"/>
<defs>
<linearGradient id="paint0_linear_7_37703" x1="1.79456" y1="32.1626" x2="62.571" y2="32.1626" gradientUnits="userSpaceOnUse">
<stop stop-color="#F9D3E4"/>
<stop offset="0.551625" stop-color="#9AAEFF"/>
<stop offset="1" stop-color="#727ABB"/>
</linearGradient>
<linearGradient id="paint1_linear_7_37703" x1="24.8661" y1="38.7597" x2="15.7772" y2="62.3591" gradientUnits="userSpaceOnUse">
<stop stop-color="#F7F2FF"/>
<stop offset="1" stop-color="#9AAEFF"/>
</linearGradient>
<linearGradient id="paint2_linear_7_37703" x1="24.1779" y1="38.1205" x2="10.2133" y2="52.1748" gradientUnits="userSpaceOnUse">
<stop stop-color="#D6DDFF"/>
<stop offset="1" stop-color="#495AB6"/>
</linearGradient>
<linearGradient id="paint3_linear_7_37703" x1="41.1194" y1="43.1338" x2="59.2396" y2="43.1338" gradientUnits="userSpaceOnUse">
<stop stop-color="#F7F2FF"/>
<stop offset="1" stop-color="#9AAEFF"/>
</linearGradient>
<linearGradient id="paint4_linear_7_37703" x1="56.4084" y1="37.0551" x2="51.6478" y2="47" gradientUnits="userSpaceOnUse">
<stop stop-color="#D6DDFF"/>
<stop offset="1" stop-color="#495AB6"/>
</linearGradient>
</defs>
</svg>
