<svg width="195" height="69" viewBox="0 0 195 69" fill="none" xmlns="http://www.w3.org/2000/svg">
<path fill-rule="evenodd" clip-rule="evenodd" d="M80.4196 34.2195C80.6993 33.8413 81.104 33.6519 81.6343 33.6519C81.8498 33.6519 82.0824 33.6987 82.3336 33.7913C82.5843 33.884 82.8639 33.9838 83.1724 34.0909C83.4805 34.1979 83.8175 34.2982 84.1829 34.3909C84.5488 34.4836 84.9536 34.5299 85.3981 34.5299C86.0861 34.5299 86.5662 34.3918 86.8386 34.1152C87.111 33.8386 87.2474 33.5246 87.2474 33.1742C87.2474 32.9043 87.1684 32.6781 87.0107 32.4964C86.8531 32.3142 86.6272 32.159 86.3336 32.0308C86.0395 31.9031 85.6917 31.7776 85.2906 31.6566C84.889 31.5347 84.4373 31.3998 83.9359 31.2513C83.4909 31.1168 83.0464 30.9617 82.6024 30.7862C82.1579 30.6113 81.7635 30.3783 81.4193 30.0882C81.0756 29.798 80.7959 29.4337 80.5809 28.9956C80.3659 28.5571 80.2584 28.0142 80.2584 27.3664C80.2584 26.5838 80.4088 25.9028 80.7101 25.3226C81.011 24.7423 81.4161 24.2633 81.9252 23.8855C82.4334 23.5081 83.018 23.2247 83.6775 23.0358C84.337 22.8473 85.0322 22.7524 85.7635 22.7524C87.1684 22.7524 88.2439 22.9665 88.9893 23.3952C89.7346 23.8234 90.1077 24.3726 90.1077 25.0437C90.1077 25.5146 89.9641 25.9042 89.6777 26.2105C89.3904 26.5177 89.0182 26.6711 88.5592 26.6711C88.2868 26.6711 88.0465 26.6427 87.8387 26.5852C87.6309 26.5285 87.4227 26.4606 87.2154 26.3818C87.0071 26.3036 86.7776 26.2357 86.5274 26.1785C86.2762 26.1219 85.9641 26.0931 85.5914 26.0931C85.1185 26.0931 84.735 26.201 84.4409 26.4169C84.1468 26.6333 84 26.9167 84 27.2675C84 27.4699 84.0574 27.6386 84.1721 27.7735C84.2868 27.9089 84.4734 28.0299 84.7313 28.1378C84.9893 28.2462 85.3263 28.3609 85.7423 28.4824C86.1579 28.6043 86.667 28.759 87.2691 28.9479C87.7421 29.0964 88.201 29.2722 88.6451 29.4746C89.0896 29.677 89.4875 29.9402 89.839 30.264C90.1899 30.5883 90.4696 30.9833 90.6774 31.4488C90.8851 31.9143 90.9895 32.4914 90.9895 33.1796C90.9895 34.0036 90.8355 34.7184 90.5269 35.326C90.2184 35.9342 89.8028 36.437 89.2797 36.8346C88.7562 37.2327 88.14 37.5269 87.4304 37.7153C86.7207 37.9043 85.9573 37.9987 85.1401 37.9987C84.6238 37.9987 84.0682 37.9492 83.4733 37.8489C82.8784 37.7495 82.3228 37.5957 81.8064 37.3888C81.2906 37.1819 80.8605 36.9215 80.5163 36.6071C80.1721 36.2931 80 35.9216 80 35.4934C80 35.0224 80.14 34.5978 80.4196 34.2195ZM98.7953 34.5895C99.0817 34.4577 99.3225 34.2791 99.5158 34.0533C99.7091 33.8275 99.856 33.5639 99.9567 33.263C100.057 32.9617 100.107 32.6419 100.107 32.3032C100.107 31.9645 100.057 31.6447 99.9567 31.3433C99.856 31.0419 99.7091 30.7788 99.5158 30.553C99.3225 30.3272 99.0817 30.1486 98.7953 30.0169C98.5085 29.8851 98.1787 29.8194 97.806 29.8194C97.4329 29.8194 97.1032 29.8851 96.8168 30.0169C96.5299 30.1486 96.2901 30.3272 96.0963 30.553C95.9029 30.7788 95.7557 31.0419 95.6554 31.3433C95.5551 31.6447 95.505 31.9645 95.505 32.3032C95.505 32.6419 95.5551 32.9617 95.6554 33.263C95.7557 33.5639 95.9029 33.8275 96.0963 34.0533C96.2901 34.2791 96.5299 34.4577 96.8168 34.5895C97.1032 34.7213 97.4329 34.7869 97.806 34.7869C98.1787 34.7869 98.5085 34.7213 98.7953 34.5895ZM92.15 28.3279C92.15 27.8466 92.3041 27.4395 92.6126 27.1062C92.9207 26.7734 93.3254 26.607 93.8273 26.607C94.2433 26.607 94.5803 26.7441 94.8382 27.0181C95.0966 27.2924 95.2827 27.5839 95.3975 27.8916C95.7701 27.435 96.1826 27.1067 96.6338 26.907C97.0855 26.7073 97.6339 26.607 98.279 26.607C99.0103 26.607 99.6911 26.7554 100.322 27.0514C100.953 27.3478 101.501 27.7517 101.967 28.2636C102.433 28.775 102.798 29.3777 103.064 30.0708C103.329 30.7644 103.462 31.5084 103.462 32.3032C103.462 33.098 103.329 33.8419 103.064 34.5351C102.798 35.2286 102.433 35.8314 101.967 36.3428C101.501 36.8546 100.953 37.2586 100.322 37.5545C99.6911 37.8509 99.0103 37.9989 98.279 37.9989C97.5621 37.9989 96.9961 37.9027 96.5801 37.7097C96.164 37.5172 95.8058 37.2995 95.505 37.0566V40.9073C95.505 41.4232 95.3509 41.86 95.0424 42.2176C94.7343 42.5743 94.3291 42.7524 93.8273 42.7524C93.3254 42.7524 92.9207 42.5859 92.6126 42.2535C92.3041 41.9207 92.15 41.5136 92.15 41.0319V28.3279ZM108.053 30.5528C108.247 30.327 108.487 30.1484 108.774 30.0166C109.06 29.8849 109.39 29.8192 109.763 29.8192C110.136 29.8192 110.466 29.8849 110.752 30.0166C111.039 30.1484 111.279 30.327 111.473 30.5528C111.666 30.7786 111.813 31.0417 111.914 31.3431C112.014 31.6445 112.064 31.9643 112.064 32.303C112.064 32.6417 112.014 32.9615 111.914 33.2628C111.813 33.5637 111.666 33.8273 111.473 34.0531C111.279 34.2789 111.039 34.4575 110.752 34.5893C110.466 34.7211 110.136 34.7867 109.763 34.7867C109.39 34.7867 109.06 34.7211 108.774 34.5893C108.487 34.4575 108.247 34.2789 108.053 34.0531C107.86 33.8273 107.713 33.5637 107.613 33.2628C107.512 32.9615 107.462 32.6417 107.462 32.303C107.462 31.9643 107.512 31.6445 107.613 31.3431C107.713 31.0417 107.86 30.7786 108.053 30.5528ZM113.86 28.2633C113.365 27.7515 112.77 27.3476 112.075 27.0511C111.379 26.7552 110.609 26.6067 109.763 26.6067C108.917 26.6067 108.146 26.7552 107.451 27.0511C106.756 27.3476 106.161 27.7515 105.667 28.2633C105.172 28.7748 104.788 29.3775 104.516 30.0706C104.243 30.7642 104.107 31.5082 104.107 32.303C104.107 33.0977 104.243 33.8417 104.516 34.5348C104.788 35.2284 105.172 35.8312 105.667 36.3426C106.161 36.8544 106.756 37.2584 107.451 37.5543C108.146 37.8507 108.917 37.9987 109.763 37.9987C110.609 37.9987 111.379 37.8507 112.075 37.5543C112.77 37.2584 113.365 36.8544 113.86 36.3426C114.354 35.8312 114.738 35.2284 115.01 34.5348C115.283 33.8417 115.419 33.0977 115.419 32.303C115.419 31.5082 115.283 30.7642 115.01 30.0706C114.738 29.3775 114.354 28.7748 113.86 28.2633ZM120.732 30.0166C120.445 30.1484 120.204 30.327 120.011 30.5528C119.818 30.7786 119.67 31.0417 119.57 31.3431C119.47 31.6445 119.42 31.9643 119.42 32.303C119.42 32.6417 119.47 32.9615 119.57 33.2628C119.67 33.5637 119.818 33.8273 120.011 34.0531C120.204 34.2789 120.445 34.4575 120.732 34.5893C121.018 34.7211 121.348 34.7867 121.721 34.7867C122.093 34.7867 122.423 34.7211 122.71 34.5893C122.996 34.4575 123.237 34.2789 123.431 34.0531C123.624 33.8273 123.771 33.5637 123.871 33.2628C123.971 32.9615 124.022 32.6417 124.022 32.303C124.022 31.9643 123.971 31.6445 123.871 31.3431C123.771 31.0417 123.624 30.7786 123.431 30.5528C123.237 30.327 122.996 30.1484 122.71 30.0166C122.423 29.8849 122.093 29.8192 121.721 29.8192C121.348 29.8192 121.018 29.8849 120.732 30.0166ZM124.033 27.0511C124.728 27.3476 125.323 27.7515 125.817 28.2633C126.312 28.7748 126.696 29.3775 126.968 30.0706C127.24 30.7642 127.376 31.5082 127.376 32.303C127.376 33.0977 127.24 33.8417 126.968 34.5348C126.696 35.2284 126.312 35.8312 125.817 36.3426C125.323 36.8544 124.728 37.2584 124.033 37.5543C123.337 37.8507 122.566 37.9987 121.721 37.9987C120.875 37.9987 120.104 37.8507 119.409 37.5543C118.713 37.2584 118.119 36.8544 117.624 36.3426C117.13 35.8312 116.746 35.2284 116.474 34.5348C116.201 33.8417 116.065 33.0977 116.065 32.303C116.065 31.5082 116.201 30.7642 116.474 30.0706C116.746 29.3775 117.13 28.7748 117.624 28.2633C118.119 27.7515 118.713 27.3476 119.409 27.0511C120.104 26.7552 120.875 26.6067 121.721 26.6067C122.566 26.6067 123.337 26.7552 124.033 27.0511ZM128.935 27.0992C128.627 27.4275 128.473 27.8287 128.473 28.3033V36.3024C128.473 36.7774 128.627 37.1786 128.935 37.507C129.244 37.8349 129.648 37.9991 130.15 37.9991C130.652 37.9991 131.057 37.8358 131.365 37.5101C131.674 37.184 131.828 36.7851 131.828 36.3137V31.1752C131.828 30.6067 131.989 30.1384 132.312 29.771C132.634 29.4035 133.089 29.2195 133.677 29.2195C134.265 29.2195 134.72 29.4035 135.043 29.771C135.365 30.1384 135.527 30.6067 135.527 31.1752V36.3137C135.527 36.7851 135.681 37.184 135.989 37.5101C136.297 37.8358 136.702 37.9991 137.204 37.9991C137.706 37.9991 138.111 37.838 138.42 37.5155C138.728 37.1939 138.882 36.7995 138.882 36.3335V30.3908C138.882 29.7327 138.774 29.1633 138.559 28.6838C138.344 28.2039 138.046 27.8098 137.667 27.5017C137.287 27.1932 136.846 26.9669 136.344 26.823C135.842 26.6795 135.297 26.6071 134.71 26.6071C133.979 26.6071 133.383 26.6993 132.924 26.8837C132.465 27.0681 132.1 27.3326 131.828 27.6776C131.713 27.4347 131.52 27.1959 131.247 26.9602C130.975 26.7245 130.609 26.6071 130.15 26.6071C129.648 26.6071 129.244 26.7713 128.935 27.0992ZM141.978 24.9002C142.063 24.4513 142.189 24.0861 142.354 23.805C142.519 23.5243 142.709 23.307 142.924 23.1523C143.139 22.998 143.365 22.8928 143.601 22.8366C143.838 22.7803 144.064 22.7524 144.279 22.7524C144.709 22.7524 145.067 22.819 145.354 22.9526C145.641 23.0862 145.892 23.2967 146.107 23.5841C146.322 23.872 146.519 24.2512 146.698 24.7216C146.877 25.1917 147.074 25.7638 147.289 26.4376L148.988 31.5968H149.031L150.73 26.4376C150.945 25.7638 151.142 25.1917 151.322 24.7216C151.501 24.2512 151.698 23.872 151.913 23.5841C152.128 23.2967 152.378 23.0862 152.666 22.9526C152.953 22.819 153.311 22.7524 153.741 22.7524C153.956 22.7524 154.182 22.7803 154.418 22.8366C154.655 22.8928 154.881 22.998 155.096 23.1523C155.311 23.307 155.501 23.5243 155.666 23.805C155.83 24.0861 155.956 24.4513 156.042 24.9002L157.419 32.6079C157.49 33.001 157.561 33.3942 157.633 33.7873C157.705 34.1804 157.766 34.5483 157.816 34.8924C157.866 35.2361 157.909 35.5383 157.945 35.7983C157.981 36.0579 157.999 36.2508 157.999 36.3777C157.999 36.5603 157.963 36.7496 157.891 36.9457C157.819 37.1428 157.712 37.3177 157.569 37.4725C157.425 37.6272 157.253 37.7531 157.053 37.8516C156.852 37.9501 156.623 37.9987 156.365 37.9987C155.977 37.9987 155.662 37.9357 155.418 37.8094C155.175 37.683 154.981 37.5147 154.838 37.3038C154.694 37.0933 154.587 36.8549 154.515 36.5877C154.443 36.3214 154.386 36.0408 154.343 35.7457L153.311 29.091H153.268L150.924 36.4613C150.752 37.0092 150.522 37.4023 150.235 37.6407C149.949 37.8795 149.54 37.9987 149.009 37.9987C148.479 37.9987 148.07 37.8795 147.784 37.6407C147.497 37.4023 147.268 37.0092 147.096 36.4613L144.752 29.091H144.709L143.676 35.7457C143.634 36.0408 143.576 36.3214 143.504 36.5877C143.433 36.8549 143.325 37.0933 143.182 37.3038C143.038 37.5147 142.845 37.683 142.601 37.8094C142.357 37.9357 142.042 37.9987 141.655 37.9987C141.397 37.9987 141.168 37.9501 140.967 37.8516C140.766 37.7531 140.594 37.6272 140.451 37.4725C140.307 37.3177 140.2 37.1428 140.128 36.9457C140.056 36.7496 140.02 36.5603 140.02 36.3777C140.02 36.2508 140.038 36.0579 140.074 35.7983C140.11 35.5383 140.153 35.2361 140.203 34.8924C140.253 34.5483 140.314 34.1804 140.386 33.7873C140.457 33.3942 140.529 33.001 140.601 32.6079L141.978 24.9002ZM166.495 30.5798C166.595 30.7754 166.645 30.9495 166.645 31.1038H162.301C162.301 30.9495 162.351 30.7754 162.452 30.5798C162.552 30.3841 162.699 30.2038 162.892 30.0378C163.086 29.8718 163.315 29.7292 163.581 29.6114C163.846 29.4926 164.143 29.4333 164.473 29.4333C164.802 29.4333 165.1 29.4926 165.365 29.6114C165.631 29.7292 165.86 29.8718 166.053 30.0378C166.247 30.2038 166.394 30.3841 166.495 30.5798ZM162.42 33.8754C162.341 33.6951 162.301 33.5345 162.301 33.3951H168.366C168.91 33.3951 169.319 33.3033 169.591 33.1198C169.864 32.9363 170 32.5661 170 32.0088C170 31.3157 169.871 30.6432 169.612 29.9906C169.354 29.3384 168.989 28.7644 168.516 28.2683C168.043 27.7726 167.473 27.3714 166.806 27.0651C166.14 26.7597 165.391 26.6067 164.559 26.6067C163.699 26.6067 162.91 26.7619 162.194 27.0714C161.476 27.3813 160.857 27.7983 160.333 28.3236C159.81 28.849 159.405 29.4553 159.118 30.1417C158.831 30.8285 158.688 31.5486 158.688 32.303C158.688 33.0977 158.824 33.8417 159.097 34.5348C159.369 35.2284 159.76 35.8312 160.269 36.3426C160.778 36.8544 161.394 37.2584 162.118 37.5543C162.842 37.8507 163.656 37.9987 164.559 37.9987C165.19 37.9987 165.821 37.9348 166.451 37.8058C167.082 37.6776 167.648 37.4954 168.15 37.2602C168.652 37.0245 169.057 36.7388 169.365 36.4033C169.673 36.0682 169.828 35.7007 169.828 35.3008C169.828 34.8726 169.688 34.5263 169.408 34.2618C169.129 33.9982 168.802 33.866 168.43 33.866C168.243 33.866 168.035 33.9195 167.806 34.0266C167.577 34.1336 167.323 34.2551 167.043 34.3909C166.763 34.5263 166.455 34.6477 166.118 34.7543C165.781 34.8614 165.405 34.9154 164.989 34.9154C164.458 34.9154 164.018 34.8627 163.666 34.7579C163.315 34.6536 163.039 34.5249 162.838 34.3738C162.638 34.2227 162.498 34.0563 162.42 33.8754Z" fill="#0B0C23"/>
<path d="M12.2898 20.9953C10.0508 22.0978 6.48559 24.4393 4.90407 25.744C3.51772 26.8874 2.0156 27.6577 2.26672 29.4375C2.39087 30.3161 3.59043 33.6707 3.84907 34.7139C8.7126 54.3307 21.7102 57.1347 31.4227 58.1962C37.5047 58.8609 44.3942 58.1389 49.8046 55.2829C63.9897 46.8496 66.6412 30.4617 66.0999 22.5782C65.9678 20.6521 63.17 19.0052 61.352 18.3571C53.3057 15.4899 46.523 14.136 39.7224 14.136C27.6835 14.136 20.2848 17.0585 12.2898 20.9953Z" fill="url(#paint0_linear_154_37073)"/>
<path d="M55.0015 32.9032C54.235 37.4397 53.5056 40.0195 51.0781 43.9455C51.807 44.9502 52.5312 45.9586 53.2465 46.9736C54.1932 48.3169 55.1233 49.672 56.0451 51.0332C67.5653 40.9565 66.239 26.8832 65.7701 20.0458C65.6375 18.1197 62.6792 18.3665 60.8244 17.8293C57.9172 16.9884 56.4701 14.593 53.4387 14.1359C54.4376 15.5756 47.5544 14.5503 48.0072 16.2464C56.0033 18.981 55.7093 28.7128 55.0015 32.9032Z" fill="#495AB6"/>
<path d="M23.099 39.8283C21.4004 40.2572 19.8884 41.3879 19.0246 43.0699C17.8353 45.3859 18.2119 48.0937 19.7676 49.9845C20.1128 50.4036 20.0827 51.0141 19.713 51.412C17.8936 53.3724 15.9862 56.0694 15.5342 56.9494C14.7545 58.4677 15.3536 60.3307 16.8712 61.1101C18.3897 61.8904 20.252 61.2916 21.0317 59.7734C21.4841 58.8929 22.5657 55.7684 23.0985 53.1462C23.209 52.6015 23.7056 52.2384 24.2606 52.2713C26.563 52.4054 28.8574 51.2699 30.0858 49.2023C31.134 47.4376 31.2248 45.3986 30.541 43.6527C30.3853 43.2557 29.8403 43.2185 29.6456 43.5976L27.7184 47.351C27.4419 47.889 26.7271 48.0621 26.2296 47.659C25.8679 47.366 25.7838 46.8444 25.9963 46.4305L28.058 41.7604C28.2926 41.228 28.0726 40.6052 27.5553 40.3385L27.5426 40.3319L27.5177 40.3185C26.999 40.0537 26.3636 40.2385 26.0688 40.7409L23.471 45.1678C23.1945 45.7059 22.4792 45.879 21.9826 45.4759C21.6205 45.1834 21.5358 44.6617 21.7489 44.2474L23.66 40.525C23.834 40.1868 23.5759 39.811 23.2246 39.811C23.1837 39.811 23.1418 39.8176 23.099 39.8283Z" fill="url(#paint1_linear_154_37073)"/>
<path d="M59.4797 47.4583C59.4614 47.4814 59.4477 47.4992 59.4299 47.5223C59.3071 47.6719 59.1896 47.8172 59.0626 47.9621C58.9356 48.1159 58.8082 48.2659 58.677 48.4155C58.4503 48.6742 58.2142 48.9329 57.9739 49.1869C57.8785 49.2908 57.7835 49.391 57.6838 49.4907C57.1712 50.0165 56.6271 50.5292 56.051 51.0334C55.892 51.1736 55.7289 51.3095 55.5657 51.4502C55.2346 51.7272 54.8946 51.9991 54.5405 52.2672C54.3862 52.3852 54.232 52.5028 54.0735 52.6209C53.6333 52.9426 53.1706 53.2648 52.6947 53.578C52.5677 53.6636 52.436 53.7455 52.3048 53.832C52.1097 53.9585 51.9098 54.0813 51.7062 54.2041C51.0981 54.5756 49.1921 55.4703 48.5347 55.8193C42.8356 58.8293 24.2673 56.8746 24.2673 56.8746V55.2916C26.6509 55.7139 38.5112 56.8746 44.8418 53.832C42.6165 53.2154 39.9574 45.5727 41.1458 42.5065C41.4679 41.6763 50.522 46.7918 50.8714 45.9344C52.4135 46.1112 53.9512 46.3379 55.4749 46.615C56.8218 46.8553 58.1554 47.1361 59.4797 47.4583Z" fill="#495AB6"/>
<path d="M18.8717 42.415C17.6824 44.731 18.2119 48.0935 19.7676 49.9843C20.1127 50.4034 19.2945 50.6199 18.9917 51.0705C17.3829 53.4641 14.9726 56.1991 14.7713 56.8745C14.3292 58.3557 15.3536 60.3306 16.8712 61.1099C18.3897 61.8902 20.2519 61.2915 21.0316 59.7732C21.484 58.8927 22.5657 55.7682 23.0985 53.146C23.2001 52.6455 27.3013 51.7077 27.8007 51.6795C22.3207 51.9603 20.3535 49.8333 19.8809 45.9864C19.5865 43.5885 21.3627 41.2293 22.7768 39.4241C22.0352 39.9805 19.3241 41.5345 18.8717 42.415Z" fill="url(#paint2_linear_154_37073)"/>
<path d="M44.5722 37.9114C42.2096 40.1795 43.7356 45.6044 46.0028 47.9675C47.7018 49.7388 50.2342 50.2233 52.3914 49.4011C52.9646 49.1828 53.6141 49.4078 53.9075 49.9472C53.9188 49.9684 53.9292 49.9857 53.9376 50.0013C55.1504 52.1541 56.9868 54.5914 57.6339 55.2372C58.7504 56.3501 60.5576 56.3472 61.6707 55.2305C62.7839 54.1139 62.781 52.3064 61.6646 51.1931C61.017 50.5473 58.5721 48.7167 56.415 47.5103C56.3717 47.4859 56.3129 47.4477 56.2429 47.3979C55.7975 47.0823 55.6188 46.5 55.8149 45.9906C56.613 43.9116 56.2029 41.4687 54.5593 39.7552C53.0352 38.1668 50.1152 36.856 47.6468 36.856C46.4429 36.856 45.3467 37.1678 44.5722 37.9114Z" fill="url(#paint3_linear_154_37073)"/>
<path d="M53.5667 39.3325C54.9972 42.5586 54.6761 44.7951 53.7595 46.2984C52.2507 48.7736 48.007 50.0153 45.3692 47.3771C47.4794 50.543 51.0606 49.9087 52.3915 49.4013C52.9647 49.183 53.6142 49.4079 53.9076 49.9474C53.919 49.9686 53.9293 49.9859 53.9377 50.0015C55.1506 52.1543 56.987 54.5916 57.6341 55.2374C58.7505 56.3502 60.5577 56.3474 61.6709 55.2307C62.784 54.1141 62.7807 52.3061 61.6647 51.1933C61.0172 50.5475 58.5722 48.7169 56.4151 47.5105C56.3718 47.4861 56.3131 47.4479 56.243 47.3981C55.7976 47.0825 55.6189 46.5002 55.815 45.9908C56.6131 43.9118 56.203 41.4689 54.5599 39.7554C54.1898 39.3706 53.7322 39.0052 53.2253 38.667C53.3494 38.8824 53.4646 39.1025 53.5667 39.3325Z" fill="url(#paint4_linear_154_37073)"/>
<path d="M25.4552 32.6198C25.2835 32.5055 25.1288 32.3846 24.9797 32.2623C24.8246 32.1513 24.6741 32.038 24.5325 31.9256C24.2311 31.7271 23.9574 31.5173 23.6813 31.3767C23.1297 31.0667 22.6566 30.9284 22.129 30.9496C21.6013 30.9684 20.9881 31.1961 20.381 31.5634C19.7743 31.9166 19.1531 32.4246 18.5911 32.9072L18.5286 32.9617C18.2347 33.2143 17.7917 33.1804 17.5391 32.8865C17.3557 32.6725 17.3238 32.3799 17.4324 32.1396C17.8331 31.2577 18.3701 30.5357 19.084 29.8659C19.7964 29.2229 20.729 28.6576 21.8722 28.5038C23.0103 28.3434 24.2395 28.7178 25.0437 29.3786C25.8714 30.0286 26.4277 30.8433 26.7357 31.7181C26.8848 32.141 26.6628 32.6047 26.2401 32.7534C25.9918 32.8409 25.7289 32.8004 25.5243 32.6659L25.4552 32.6198Z" fill="#0A1931"/>
<path d="M50.0374 29.1166C49.697 29.0014 49.325 28.8381 48.9869 28.7017C48.6384 28.5691 48.305 28.4341 47.98 28.3245C47.3306 28.1058 46.7258 27.9609 46.2419 28.0099C45.7669 28.0522 45.338 28.2464 44.904 28.7196C44.4643 29.1721 44.0862 29.8226 43.7137 30.5196L43.7043 30.5375C43.52 30.8832 43.0901 31.0135 42.7445 30.8291C42.4924 30.6941 42.3551 30.4284 42.3706 30.1603C42.4252 29.2685 42.6495 28.3518 43.1767 27.4624C43.4499 27.0306 43.7937 26.5866 44.2743 26.2545C44.7431 25.9187 45.3089 25.668 45.8831 25.5777C47.0428 25.3881 48.1013 25.6727 48.9525 26.1101C49.3824 26.3326 49.7746 26.5946 50.124 26.9008C50.4823 27.2051 50.7833 27.5226 51.072 27.9403C51.3236 28.3048 51.2329 28.8043 50.8684 29.0564C50.653 29.205 50.3901 29.2342 50.1592 29.158L50.0374 29.1166Z" fill="#0A1931"/>
<path d="M29.3478 33.8737C29.733 33.9132 30.0222 34.0143 30.3377 34.1597C30.6368 34.3154 30.9326 34.5054 31.1809 34.7594C31.6931 35.2518 32.0378 35.9503 32.1502 36.6568C32.2696 37.3707 32.1473 38.049 31.9555 38.6614C31.8417 38.9582 31.7011 39.2399 31.5576 39.5118C31.386 39.7667 31.2129 40.0169 31.013 40.2441C30.808 40.4774 30.453 40.5004 30.2197 40.2954C30.0829 40.175 30.0184 40.0033 30.0297 39.8349L30.0349 39.7592C30.0551 39.4826 30.1021 39.2282 30.1506 38.9789L30.2395 38.2545C30.2634 37.7931 30.2855 37.3618 30.2089 36.9851C30.1332 36.6078 30.0081 36.2744 29.8059 35.9291C29.6149 35.5891 29.2867 35.2344 28.989 34.9047L28.8841 34.7881C28.681 34.5632 28.6989 34.2157 28.9241 34.0125C29.0436 33.9043 29.1997 33.8591 29.3478 33.8737Z" fill="#0A1931"/>
<path d="M41.1422 32.846C41.043 33.3319 40.9136 33.8422 40.8422 34.2965C40.7697 34.7594 40.7378 35.1897 40.7683 35.5942C40.774 35.8002 40.8285 35.9889 40.8582 36.1902C40.9329 36.376 40.9673 36.582 41.0749 36.7706C41.2292 37.1774 41.525 37.549 41.8119 38.0048L41.865 38.089C42.0277 38.3477 41.9501 38.6891 41.6915 38.8523C41.5311 38.953 41.335 38.96 41.1732 38.89C40.8845 38.762 40.5896 38.6247 40.3235 38.4304C40.0686 38.2207 39.7968 38.0146 39.5936 37.7273C39.3627 37.4648 39.2075 37.1403 39.0528 36.8167C38.9371 36.4785 38.8308 36.1295 38.8073 35.7739C38.7372 35.0651 38.86 34.3671 39.1172 33.7636C39.3815 33.1531 39.729 32.6381 40.2614 32.2011C40.4998 32.006 40.852 32.0403 41.0472 32.2792C41.1577 32.4137 41.1949 32.584 41.1634 32.742L41.1422 32.846Z" fill="#0A1931"/>
<path d="M35.0567 38.5234C32.6428 38.5234 30.7923 37.5362 30.6649 37.467C30.1866 37.2051 30.0112 36.6058 30.2722 36.127C30.5337 35.6501 31.1309 35.4746 31.6092 35.7333C31.7818 35.8265 35.7391 37.8993 39.1297 35.0415C39.5464 34.691 40.1695 34.7433 40.5203 35.1604C40.8716 35.5772 40.818 36.2004 40.4014 36.5513C38.6035 38.0663 36.6994 38.5234 35.0567 38.5234Z" fill="#0A1931"/>
<path d="M26.7836 36.3029C27.0587 37.9572 24.8847 39.5363 22.1572 39.9902C19.4291 40.4436 17.1812 39.5996 16.906 37.9449C16.6309 36.2907 18.6192 34.5819 21.3468 34.1285C24.0748 33.6751 26.509 34.6483 26.7836 36.3029Z" fill="#FFB3DD"/>
<path d="M53.7224 33.9017C53.8297 35.5757 51.8218 36.6479 49.0622 36.8243C46.3027 37.0011 43.8364 36.2144 43.7292 34.5409C43.6225 32.8674 45.7725 31.3675 48.5321 31.1911C51.2916 31.0147 53.6152 32.2282 53.7224 33.9017Z" fill="#FFB3DD"/>
<path d="M13.0822 22.8254C12.3054 23.5506 11.5082 24.2468 10.7093 24.9396C10.4802 25.1051 10.3862 25.2985 10.2329 25.4706C10.1125 25.662 9.96482 25.8285 9.86606 26.0157C9.63563 26.3723 9.47386 26.7307 9.35911 27.0881C9.13197 27.7988 9.08494 28.5457 9.16583 29.4211C9.18699 29.6402 9.21803 29.8608 9.24954 30.0904C9.28246 30.3114 9.3182 30.5734 9.3704 30.7601C9.39673 30.8636 9.41413 30.9591 9.44564 31.0696L9.54534 31.4144C9.60553 31.6406 9.68877 31.8824 9.76542 32.1199C10.4041 34.0394 11.157 36.0125 11.8746 37.9819L14.0044 43.9153L14.0153 43.9454C14.0928 44.1618 13.9805 44.3998 13.7646 44.4774C13.5972 44.5376 13.4166 44.4835 13.3075 44.356C12.5814 43.5042 11.9837 42.6214 11.3996 41.7178C10.8057 40.8218 10.278 39.8938 9.73815 38.9686C8.69133 37.0981 7.72492 35.2054 6.90007 33.1594C6.79896 32.8993 6.69456 32.6467 6.60145 32.3673L6.45943 31.9572C6.41381 31.8151 6.3729 31.6529 6.33104 31.5009C6.24028 31.1792 6.18855 30.9186 6.12836 30.6195C6.06863 30.3288 6.03477 30.025 5.9995 29.7188C5.87253 28.4982 6.03854 27.066 6.71384 25.8558C7.35858 24.6301 8.47877 23.8051 9.49079 23.2877C10.4003 22.7374 11.3121 22.1904 12.2442 21.673C12.9673 21.2717 13.6805 22.2665 13.0822 22.8254Z" fill="white"/>
<path d="M14.6942 13.4192L14.8743 16.0193Z" fill="#9DED81"/>
<path d="M7.44757 16.4297L12.8275 16.8911Z" fill="#9DED81"/>
<path d="M5.2336 25.9282C6.74505 24.6677 8.40745 23.6019 10.1625 22.7106C13.8137 20.8579 17.7818 19.5381 21.7438 18.5367C24.5499 17.8279 27.7179 16.4901 30.5978 16.2465C28.7182 12.9268 29.105 17.5245 23.1918 14.8948C21.781 14.2669 18.9556 11.7119 15.1925 13.3953C11.7139 12.8535 9.72951 13.9819 8.5971 15.1912C6.74659 17.1685 7.16838 15.0356 2.79394 17.3018C0.467042 18.5063 4.69702 26.0176 4.69702 26.0176C4.69702 26.0176 4.8889 25.9865 5.2336 25.9282Z" fill="#9DED81"/>
<path d="M6.61998 25.9746C7.61977 25.4064 8.63811 24.1762 9.65201 23.6334C12.5211 22.0982 15.2328 20.7198 18.2811 19.5853C18.2313 19.5397 18.1791 19.496 18.1226 19.4583C17.8061 19.2472 14.4648 20.011 14.0994 19.9399C13.0639 19.7377 12.2528 20.224 11.2347 19.9399C10.3111 19.6817 9.39356 19.3769 8.53061 18.955C7.47721 18.44 6.6326 17.5811 6.23005 16.4636C6.22864 16.4579 6.2277 16.4528 6.22582 16.4476C5.78283 17.9518 5.71189 15.9143 2.40448 17.6273C0.226663 18.7552 6.35804 26.0178 6.35804 26.0178C6.35804 26.0178 6.45256 26.0028 6.61998 25.9746Z" fill="#2DA04B"/>
<path d="M33.2626 14.2973C34.7633 14.2436 36.2644 14.293 37.765 14.3217C39.4439 14.3537 41.1208 14.4224 42.7969 14.5263C44.0055 14.6016 45.2122 14.6994 46.4184 14.8066C46.7241 14.0673 46.7533 13.2352 46.2985 12.3204C44.3488 8.39157 40.8392 5.87473 36.4539 6.47772C30.1654 7.34269 28.8788 14.4906 28.8788 14.4906L29.5663 14.7201C30.7777 14.4525 32.0249 14.3415 33.2626 14.2973Z" fill="#FFCD5D"/>
<path d="M31.6146 14.1144L30.3557 13.6935C30.9411 11.8859 32.6064 8.24215 36.6206 7.68996C40.2003 7.19938 43.3271 9.08407 45.203 12.8643C45.4607 13.384 45.4908 13.8492 45.2971 14.3275C45.2806 14.3684 45.2576 14.4084 45.2383 14.4489C46.0598 14.5744 46.8786 14.7165 47.6945 14.8708C47.9997 13.8557 47.8995 12.7937 47.3945 11.7759C45.0563 7.06487 40.9038 4.62987 36.2872 5.26578C29.2002 6.24034 27.7339 13.9465 27.6751 14.2739L27.5383 15.0349C28.8701 14.6177 30.2334 14.3172 31.6146 14.1144Z" fill="#0A1931"/>
<path d="M39.2458 15.4467C40.2507 15.3922 41.2646 15.3978 42.2701 15.4359C46.2899 15.5869 50.2769 16.2383 54.2088 17.053C56.8146 17.5925 59.4034 18.2096 61.9866 18.8459C62.0637 18.6818 62.0736 18.5059 61.9998 18.3168C60.6341 14.8122 57.8111 13.0649 53.7592 12.4078C49.7083 11.7507 49.7685 9.06929 45.5003 8.81531C41.2326 8.56179 38.649 13.4369 38.649 13.4369L38.3381 15.5267C38.64 15.4914 38.9429 15.4632 39.2458 15.4467Z" fill="#F27DB5"/>
<path d="M57.1949 16.6021C58.8559 17.1538 60.484 17.801 62.1168 18.4299C62.2028 18.4628 62.2879 18.4971 62.3735 18.5305C62.3684 18.4609 62.3561 18.3904 62.3275 18.317C60.9618 14.8124 58.1383 13.0646 54.0874 12.4075C53.9717 12.3892 52.7175 14.2772 48.613 14.6774C51.5343 14.9808 54.4109 15.6774 57.1949 16.6021Z" fill="#0A1931"/>
<path d="M39.8735 13.8598C40.341 13.0758 42.4243 9.91081 45.4251 10.0872C47.2793 10.1972 48.0807 10.8134 49.0951 11.5932C50.1372 12.3942 51.318 13.302 53.5556 13.6651C57.0558 14.2324 59.2802 15.6392 60.4916 18.0619C61.4378 18.275 62.3769 18.5158 63.3122 18.7708C63.3438 18.4674 63.3038 18.1555 63.1862 17.854C61.7284 14.1129 58.7111 11.9201 53.9628 11.1502C52.3601 10.891 51.5663 10.2805 50.6474 9.57357C49.5056 8.6959 48.2114 7.70064 45.576 7.54401C40.5554 7.24534 37.6449 12.612 37.5236 12.8406L37.4215 13.0334L37.0815 15.3198C37.9483 15.2116 38.8182 15.1345 39.6911 15.086L39.8735 13.8598Z" fill="#0A1931"/>
<path d="M26.2405 16.1123C29.1966 15.3753 32.2152 14.8819 35.2621 14.7408C36.2374 14.6956 37.21 14.7168 38.1815 14.7662C37.2551 11.9337 34.2285 9.85387 30.6285 9.85387C26.2922 9.85387 22.7769 12.8679 22.7769 16.585C22.7769 16.6932 22.7901 16.7995 22.7962 16.9067C23.9531 16.6861 25.0982 16.3969 26.2405 16.1123Z" fill="#FC9A38"/>
<path d="M24.0962 15.9648C24.4687 13.2471 27.2546 11.1277 30.6288 11.1277C32.9397 11.1277 34.9722 12.1239 36.146 13.6234C37.1227 13.5566 38.1004 13.5378 39.0767 13.5716C37.7162 10.648 34.4445 8.5803 30.6288 8.5803C25.6147 8.5803 21.5352 12.1465 21.5065 16.5391C22.3727 16.3608 23.2357 16.168 24.0962 15.9648Z" fill="#0A1931"/>
<path d="M6.48704 23.9995C4.83122 21.5626 3.56949 19.0895 3.57419 18.226C5.29679 17.361 6.41838 17.1827 7.32506 17.0388C8.46076 16.8587 9.53345 16.6889 10.7129 15.4288C11.3557 14.7416 13.7094 15.108 15.9855 15.4627L16.3575 15.5205L16.7013 15.3667C18.968 14.3527 20.7324 15.3921 22.1503 16.2275C22.1809 16.2449 22.2063 16.259 22.2354 16.2764C23.4069 15.8427 24.5854 15.4279 25.7709 15.037C25.3275 14.9091 24.8059 14.7195 24.1852 14.4434C24.006 14.3639 23.7323 14.2026 23.4431 14.0323C21.9876 13.1749 19.3235 11.6058 16.0222 12.8903C12.8601 12.4007 10.3611 12.0776 8.85344 13.6876C8.27124 14.3098 7.90538 14.3677 6.92674 14.5234C5.86535 14.6913 4.41127 14.9218 2.21699 16.0581C1.64985 16.3521 1.25529 16.8709 1.10622 17.519C0.967487 18.1215 0.843806 20.4244 4.58104 25.7341C5.17358 25.1109 5.81315 24.5347 6.48704 23.9995Z" fill="#0A1931"/>
<path d="M25.7142 11.708C25.7142 11.708 23.7334 15.4144 35.5522 13.5842L23.3783 16.8372C23.3783 16.8372 22.1862 14.3457 25.7142 11.708Z" fill="#0A1931"/>
<path d="M34.6653 9.54919C34.6653 9.54919 38.3457 11.3582 41.0793 9.40197L37.9878 12.8308L34.6653 9.54919Z" fill="#0A1931"/>
<path d="M61.671 55.2306C61.1132 55.7898 60.3815 56.0697 59.6493 56.0697C58.9204 56.0697 58.1915 55.7922 57.6342 55.2372C56.9871 54.5919 55.1507 52.1541 53.9374 50.0013C53.9289 49.9862 53.919 49.9679 53.9078 49.9472C53.6891 49.546 53.2738 49.3188 52.8393 49.3188C52.6898 49.3188 52.5383 49.3456 52.3916 49.4011C51.7111 49.6607 50.994 49.7901 50.2768 49.7901C48.7202 49.7901 47.166 49.1805 46.003 47.968C43.7354 45.6045 42.2093 40.1795 44.572 37.9114C45.347 37.1683 46.4432 36.8565 47.6471 36.8565C50.115 36.8565 53.0354 38.1673 54.5591 39.7557C56.2031 41.4687 56.6132 43.9121 55.8147 45.9906C55.6191 46.5 55.7978 47.0828 56.2431 47.3979C56.3132 47.4478 56.372 47.4859 56.4152 47.5103C58.5724 48.7168 61.0173 50.5473 61.6644 51.1931C62.7813 52.3064 62.7841 54.114 61.671 55.2306ZM25.1381 55.589C25.2072 55.3266 25.2749 55.0636 25.3384 54.8007C28.1981 54.5716 30.8109 52.9687 32.2758 50.5036C33.6866 48.1283 33.919 45.2931 32.913 42.724C32.5255 41.7344 31.6772 41.0388 30.6666 40.8422C30.5147 39.6941 29.8196 38.6395 28.722 38.0737L28.6769 38.0511C28.1652 37.7896 27.5919 37.6513 27.0182 37.6513C26.4097 37.6513 25.8195 37.8056 25.2975 38.0855C24.7402 37.5672 23.9981 37.2647 23.225 37.2647C22.973 37.2647 22.7209 37.2962 22.4754 37.3583C20.0065 37.982 17.9232 39.64 16.7597 41.9061C15.3372 44.676 15.4797 47.9496 17.0617 50.5591C16.8261 50.8333 16.5909 51.116 16.3581 51.4015C10.7154 47.3876 6.33064 41.0454 4.37653 32.0755C3.62278 28.6156 5.75826 26.0444 8.44084 24.6886C25.1381 16.2498 40.8495 13.982 58.5581 18.3569C62.8296 19.4122 64.3612 20.9951 64.3612 25.2162C64.3612 32.1971 63.5042 38.9546 58.5705 45.6063C59.1353 42.8967 58.3457 40.0228 56.3974 37.9919C54.3164 35.8231 50.7184 34.3091 47.6471 34.3091C45.6846 34.3091 44.0114 34.9186 42.8085 36.0738C41.0892 37.7233 40.4646 40.3192 41.0492 43.3821C41.5124 45.8072 42.6773 48.181 44.1652 49.7318C45.7773 51.4118 47.9476 52.3375 50.2768 52.3375C50.7499 52.3375 51.2183 52.297 51.6801 52.2199C43.8739 57.6647 34.1207 58.1747 25.1381 55.589ZM24.261 52.2712C24.238 52.2698 24.2149 52.2688 24.1924 52.2688C23.6652 52.2688 23.2048 52.6239 23.099 53.146C22.5657 55.7687 21.4841 58.8927 21.0321 59.7732C20.4843 60.84 19.4027 61.4528 18.2811 61.4528C17.8061 61.4528 17.3236 61.3423 16.8717 61.1104C15.3536 60.3306 14.755 58.4675 15.5347 56.9493C15.9866 56.0692 17.894 53.3727 19.7135 51.4123C20.0827 51.0139 20.1132 50.4034 19.7681 49.9843C18.2124 48.0935 17.8357 45.3857 19.025 43.0702C19.8889 41.3873 21.4008 40.2571 23.0995 39.8281C23.1423 39.8168 23.1846 39.8121 23.225 39.8121C23.5763 39.8121 23.834 40.1884 23.6605 40.5261L21.7493 44.2484C21.5363 44.6628 21.6205 45.1844 21.9826 45.4775C22.1693 45.6284 22.3865 45.6985 22.6 45.6985C22.9546 45.6985 23.2984 45.5047 23.471 45.1684L26.0692 40.742C26.2733 40.3944 26.6401 40.1987 27.0182 40.1987C27.187 40.1987 27.3582 40.2378 27.5176 40.3196L27.543 40.3319L27.5557 40.3389C28.0726 40.6051 28.2926 41.2279 28.058 41.7598L25.9968 46.4304C25.7838 46.8448 25.8679 47.3659 26.23 47.6589C26.4167 47.8104 26.634 47.8805 26.8475 47.8805C27.2026 47.8805 27.5463 47.6867 27.7184 47.3509L29.6456 43.598C29.7373 43.4197 29.9066 43.3331 30.0764 43.3331C30.2673 43.3331 30.4592 43.4427 30.5415 43.653C31.2252 45.3989 31.1345 47.4374 30.0858 49.2026C28.9233 51.1602 26.8042 52.2815 24.6283 52.2815C24.506 52.2815 24.3833 52.2782 24.261 52.2712ZM60.7318 47.237C67.1256 38.0511 67.3747 27.5328 66.999 22.0504C66.8409 19.7537 64.9121 17.5351 62.7785 16.774C53.9029 13.6082 45.869 12.6607 34.8184 13.6082C22.5101 14.6635 13.7163 18.3569 4.37653 24.161C2.65723 25.6567 1.05645 27.3313 1.21132 29.965C1.73878 38.9348 6.62742 47.717 14.723 53.535C14.0651 54.4494 13.5375 55.2626 13.2694 55.7856C12.5814 57.1247 12.4563 58.6524 12.9167 60.086C13.3776 61.5196 14.3689 62.688 15.7082 63.3761C16.502 63.7844 17.3918 64.0002 18.2811 64.0002C20.4053 64.0002 22.3277 62.8258 23.2979 60.9369C23.5636 60.419 23.9591 59.4106 24.364 58.1886C34.3058 61.0788 45.034 60.3331 53.5979 54.2038C54.4632 55.4413 55.3148 56.5212 55.8359 57.041C56.8554 58.0574 58.2098 58.6171 59.6493 58.6171C61.0954 58.6171 62.454 58.0532 63.4745 57.0292C65.5775 54.9197 65.5719 51.4923 63.4632 49.3889C62.9576 48.8851 61.9249 48.0719 60.7318 47.237Z" fill="#0A1931"/>
<defs>
<linearGradient id="paint0_linear_154_37073" x1="1.89345" y1="34.8854" x2="66.0187" y2="34.8854" gradientUnits="userSpaceOnUse">
<stop stop-color="#F9D3E4"/>
<stop offset="0.551625" stop-color="#9AAEFF"/>
<stop offset="1" stop-color="#727ABB"/>
</linearGradient>
<linearGradient id="paint1_linear_154_37073" x1="26.2363" y1="41.8473" x2="16.6437" y2="66.7502" gradientUnits="userSpaceOnUse">
<stop stop-color="#F7F2FF"/>
<stop offset="1" stop-color="#9AAEFF"/>
</linearGradient>
<linearGradient id="paint2_linear_154_37073" x1="25.5102" y1="41.1726" x2="10.7736" y2="56.0012" gradientUnits="userSpaceOnUse">
<stop stop-color="#D6DDFF"/>
<stop offset="1" stop-color="#495AB6"/>
</linearGradient>
<linearGradient id="paint3_linear_154_37073" x1="43.3852" y1="46.463" x2="62.5037" y2="46.463" gradientUnits="userSpaceOnUse">
<stop stop-color="#F7F2FF"/>
<stop offset="1" stop-color="#9AAEFF"/>
</linearGradient>
<linearGradient id="paint4_linear_154_37073" x1="59.5165" y1="40.0484" x2="54.4923" y2="50.5423" gradientUnits="userSpaceOnUse">
<stop stop-color="#D6DDFF"/>
<stop offset="1" stop-color="#495AB6"/>
</linearGradient>
</defs>
</svg>
