<svg width="24" height="24" viewBox="0 0 24 24" fill="none" xmlns="http://www.w3.org/2000/svg">
<rect x="0.107422" width="23.7839" height="23.7839" rx="11.892" fill="#94E578"/>
<g clip-path="url(#clip0_154_37092)">
<path fill-rule="evenodd" clip-rule="evenodd" d="M11.3806 3.68026C10.7152 3.48988 9.98657 3.50784 9.48731 3.99847C8.9807 4.49633 8.98699 5.20475 9.17984 5.76395C9.21349 5.86151 9.25381 5.95931 9.30072 6.05695L7.76368 5.61719C6.90562 5.37169 5.85013 5.74366 5.57057 6.72078L4.81608 9.35783C4.6068 10.0893 4.94593 10.763 5.48966 11.1585L4.37734 15.0462C4.24683 15.5024 4.30288 15.9917 4.53314 16.4065C4.76341 16.8214 5.14904 17.1277 5.6052 17.2582L14.5951 19.8303C15.0513 19.9609 15.5406 19.9048 15.9554 19.6745C16.3703 19.4443 16.6767 19.0587 16.8072 18.6025L17.9195 14.7147C18.5901 14.6667 19.2342 14.2743 19.4435 13.5429L20.1979 10.9058C20.4775 9.9287 19.7785 9.05474 18.9204 8.80924L17.606 8.43317C17.7072 8.36388 17.8008 8.28906 17.8865 8.20899C18.3569 7.76928 18.6087 7.12051 18.3651 6.46171C18.1364 5.84295 17.5528 5.44617 16.8748 5.2522C15.485 4.85457 14.3773 5.45113 13.6664 6.07874C13.395 5.17011 12.7704 4.07787 11.3806 3.68026ZM12.2546 6.59772C12.2753 6.67502 12.293 6.75183 12.3082 6.82728C11.245 6.3211 10.7362 5.67606 10.5979 5.2749C10.5628 5.17317 10.5559 5.10933 10.5568 5.07304C10.6128 5.06213 10.7367 5.0562 10.968 5.1224C11.7083 5.33419 12.073 5.92025 12.2546 6.59772ZM10.5639 5.03345C10.5639 5.03345 10.5635 5.03644 10.5606 5.04137C10.5621 5.03575 10.5639 5.03345 10.5639 5.03345ZM14.5902 7.26588C14.5253 7.32655 14.4638 7.38864 14.406 7.45084C15.8244 7.66984 16.6015 7.35689 16.8621 7.11319C16.9347 7.04541 16.9532 6.9983 16.957 6.98568L16.9581 6.98158C16.9549 6.97377 16.8783 6.81337 16.4622 6.69434C15.7218 6.48251 15.1025 6.78701 14.5902 7.26588ZM7.0127 7.13339C7.01477 7.12615 7.02473 7.09759 7.08288 7.07054C7.14287 7.04263 7.2386 7.02714 7.35107 7.05932L12.2083 8.44903L11.3635 11.402L6.50621 10.0123C6.39373 9.98009 6.32068 9.91631 6.28453 9.8609C6.24949 9.80718 6.25615 9.77768 6.25822 9.77044L7.0127 7.13339ZM12.8056 11.8146L13.6505 8.86164L18.5078 10.2514C18.6203 10.2836 18.6933 10.3473 18.7295 10.4027C18.7645 10.4565 18.7579 10.486 18.7558 10.4932L18.0013 13.1303C17.9992 13.1375 17.9893 13.1661 17.9311 13.1931C17.8711 13.221 17.7754 13.2365 17.6629 13.2043L12.8056 11.8146ZM6.89923 11.6849L10.9509 12.8441L9.79162 16.8958L6.01781 15.8161C5.94413 15.795 5.88184 15.7455 5.84465 15.6785C5.80745 15.6115 5.7984 15.5325 5.81948 15.4588L6.89923 11.6849ZM12.393 13.2567L11.2338 17.3084L15.0077 18.3882C15.0814 18.4093 15.1605 18.4002 15.2275 18.363C15.2945 18.3259 15.344 18.2636 15.365 18.1899L16.4448 14.416L12.393 13.2567Z" fill="#0B0C23"/>
</g>
<defs>
<clipPath id="clip0_154_37092">
<rect width="16" height="16" fill="white" transform="translate(6.50859 2) rotate(15.9664)"/>
</clipPath>
</defs>
</svg>
