<svg width="24" height="24" viewBox="0 0 24 24" fill="none" xmlns="http://www.w3.org/2000/svg">
<path d="M6.64747 1.39848L6.50003 1L6.35258 1.39847C5.84615 2.76707 4.7671 3.84612 3.3985 4.35255L3.00003 4.5L3.3985 4.64745C4.7671 5.15388 5.84615 6.23293 6.35258 7.60152L6.50003 8L6.64747 7.60152C7.1539 6.23293 8.23295 5.15388 9.60155 4.64745L10 4.5L9.60155 4.35255C8.23295 3.84612 7.1539 2.76707 6.64747 1.39848Z" fill="#189834"/>
<path fill-rule="evenodd" clip-rule="evenodd" d="M11.2928 8.94975C11.2765 8.96609 11.2608 8.98285 11.2458 9L3.00003 9C1.92555 9 0.934042 9.89278 1.05495 11.0982C1.30712 13.6123 2.41942 15.9757 4.22185 17.7782C5.20403 18.7604 6.35282 19.5376 7.6018 20.0824C7.24767 20.2363 7.00003 20.5893 7.00003 21C7.00003 21.5523 7.44774 22 8.00003 22H16C16.5523 22 17 21.5523 17 21C17 20.5893 16.7524 20.2363 16.3983 20.0824C17.6472 19.5376 18.796 18.7604 19.7782 17.7782C21.5806 15.9757 22.6929 13.6122 22.9451 11.0982C23.066 9.89278 22.0745 9 21 9H18.3136L19.4245 7.88909C20.4008 6.91278 20.4008 5.32986 19.4245 4.35355C18.4482 3.37724 16.8653 3.37724 15.889 4.35355L11.2928 8.94975ZM18.0103 5.76777C17.8151 5.5725 17.4985 5.5725 17.3032 5.76777L14.071 9H15.4852L18.0103 6.47487C18.2056 6.27961 18.2056 5.96303 18.0103 5.76777ZM20.9443 11C20.7187 13.019 19.8144 14.9135 18.364 16.364C16.6762 18.0518 14.387 19 12 19C9.61308 19 7.32389 18.0518 5.63607 16.364C4.18565 14.9135 3.28139 13.019 3.05572 11L20.9443 11Z" fill="#189834"/>
</svg>
