<svg width="24" height="24" viewBox="0 0 24 24" fill="none" xmlns="http://www.w3.org/2000/svg">
<path d="M8.97801 10.1701C7.91537 9.90326 6.98942 10.2321 6.27915 10.4843L6.19938 10.5126C5.47204 10.7712 4.82827 11 3.99999 11C3.4477 11 2.99999 11.4477 3 12C3.00001 12.5523 3.44773 13 4.00001 13C5.18117 13 6.11356 12.667 6.81756 12.4156L6.93642 12.3732C7.69681 12.1032 8.08225 12.0073 8.4909 12.1099C9.02655 12.2444 9.56983 11.9192 9.70434 11.3836C9.83885 10.8479 9.51366 10.3046 8.97801 10.1701Z" fill="#5D42C8"/>
<path d="M6.27915 7.48428C6.98942 7.23207 7.91537 6.90326 8.97801 7.17011C9.51366 7.30462 9.83885 7.8479 9.70434 8.38355C9.56983 8.91921 9.02655 9.2444 8.4909 9.10988C8.08225 9.00727 7.69681 9.10325 6.93642 9.37324L6.81756 9.41561C6.11356 9.66701 5.18117 9.99999 4.00001 10C3.44773 10 3.00001 9.55229 3 9.00001C2.99999 8.44773 3.4477 8.00001 3.99999 8C4.82827 7.99999 5.47204 7.77116 6.19938 7.51262L6.27915 7.48428Z" fill="#5D42C8"/>
<path fill-rule="evenodd" clip-rule="evenodd" d="M10.364 2.33856C10.9916 2.61657 11.5331 3.05973 12 3.66871C12.4669 3.05973 13.0084 2.61657 13.636 2.33856C14.7092 1.86316 15.8393 1.96038 16.8626 2.19328C17.5465 2.34894 18.2965 2.5971 19.0177 2.8357C19.3425 2.94314 19.6614 3.04865 19.9657 3.1429C21.0052 3.4648 22.007 3.70522 23 3.70523C23.5523 3.70523 24 4.15295 24 4.70523V20C24 20.2652 23.8946 20.5196 23.7071 20.7071C23.5196 20.8946 23.2652 21 23 21C21.6902 21 20.5344 20.6823 19.517 20.3067C19.0218 20.1239 18.5478 19.9228 18.1103 19.7371L18.0816 19.725C17.6277 19.5324 17.217 19.3588 16.8185 19.2158C16.019 18.9289 15.3793 18.8081 14.7817 18.9053C14.5917 18.9363 14.3912 18.9918 14.1787 19.0837C14.1791 19.0836 14.1795 19.0835 14.1799 19.0834C15.1347 18.8648 15.9544 19.1081 16.6584 19.4335C17.0739 19.6255 17.4507 19.8359 17.8231 20.0437C18.7628 20.5683 19.6743 21.0772 21.1104 21.2368C21.6593 21.2978 22.0549 21.7922 21.9939 22.3411C21.9329 22.89 21.4385 23.2856 20.8896 23.2246C19.0109 23.0158 17.5857 22.2172 16.5892 21.6588C16.2956 21.4942 16.0392 21.3505 15.8193 21.249C15.3082 21.0128 14.9689 20.9545 14.6262 21.033C14.2497 21.1191 13.6958 21.411 12.8708 22.2656C12.3971 22.7563 11.6029 22.7563 11.1292 22.2656C10.3042 21.411 9.75032 21.1191 9.3738 21.0329C9.03105 20.9545 8.69179 21.0127 8.18065 21.249C7.96084 21.3505 7.70443 21.4942 7.4108 21.6588C6.41431 22.2172 4.98909 23.0158 3.11044 23.2246C2.56154 23.2856 2.06711 22.89 2.00612 22.3411C1.94512 21.7922 2.34065 21.2978 2.88956 21.2368C4.32568 21.0772 5.23722 20.5683 6.17692 20.0437C6.54927 19.8359 6.92606 19.6255 7.34165 19.4334C8.04559 19.1081 8.86527 18.8648 9.82009 19.0834C9.82049 19.0835 9.82089 19.0836 9.82129 19.0837C9.60881 18.9918 9.40827 18.9363 9.21825 18.9053C8.62073 18.8081 7.98096 18.9289 7.18152 19.2158C6.78305 19.3588 6.37235 19.5324 5.91842 19.725L5.88981 19.7371C5.45225 19.9228 4.97819 20.1239 4.48302 20.3067C3.46563 20.6823 2.3098 21 1 21C0.734787 21 0.480432 20.8946 0.292895 20.7071C0.105357 20.5196 0 20.2652 0 20V4.70523C0 4.15295 0.447709 3.70523 0.99999 3.70523C1.99296 3.70522 2.99477 3.4648 4.03427 3.1429C4.33864 3.04865 4.65754 2.94314 4.9823 2.8357C5.70348 2.5971 6.45354 2.34894 7.13744 2.19328C8.1607 1.96038 9.29084 1.86316 10.364 2.33856ZM9.55396 4.16718C9.99789 4.36383 10.5093 4.81487 11 5.89799V17.4345C10.5239 17.1779 10.0385 17.0125 9.53956 16.9313C8.44698 16.7535 7.42529 17.0035 6.50598 17.3334C6.04508 17.4988 5.58208 17.6951 5.13725 17.8838L5.12634 17.8885C4.67707 18.0791 4.24029 18.2644 3.79041 18.4305C3.20216 18.6476 2.61187 18.8238 2 18.9201V5.64662C2.93138 5.54048 3.81636 5.30408 4.62588 5.05339C5.02104 4.93103 5.38675 4.80974 5.73294 4.69493C6.39761 4.47449 6.99036 4.27791 7.58131 4.1434C8.44867 3.94598 9.06593 3.95099 9.55396 4.16718ZM14.4604 16.9313C13.9615 17.0125 13.4761 17.1779 13 17.4345V5.89799C13.4907 4.81487 14.0021 4.36383 14.446 4.16718C14.9341 3.95099 15.5513 3.94598 16.4187 4.1434C17.0096 4.2779 17.6023 4.47447 18.267 4.6949C18.6132 4.80971 18.979 4.93103 19.3741 5.05339C20.1836 5.30408 21.0686 5.54048 22 5.64662V18.9201C21.3881 18.8238 20.7978 18.6476 20.2096 18.4305C19.7597 18.2644 19.3233 18.0792 18.874 17.8886L18.8628 17.8838C18.4179 17.6951 17.9549 17.4988 17.494 17.3334C16.5747 17.0035 15.553 16.7535 14.4604 16.9313Z" fill="#5D42C8"/>
</svg>
