<svg width="24" height="24" viewBox="0 0 24 24" fill="none" xmlns="http://www.w3.org/2000/svg">
<path d="M3 2C2.44772 2 2 2.44772 2 3C2 3.55229 2.44772 4 3 4L21 4C21.5523 4 22 3.55228 22 3C22 2.44772 21.5523 2 21 2L3 2Z" fill="#C9500C"/>
<path d="M14.9135 15.2961C15.6378 14.5421 15.6378 13.3196 14.9135 12.5655C14.1892 11.8115 13.0148 11.8115 12.2905 12.5655L12.0282 12.8386L11.7659 12.5655C11.0416 11.8115 9.86718 11.8115 9.14286 12.5655C8.41853 13.3196 8.41853 14.5421 9.14286 15.2961L11.049 17.2804C11.5098 17.7601 11.7402 18 12.0282 18C12.3162 18 12.5466 17.7601 13.0074 17.2804L14.9135 15.2961Z" fill="#C9500C"/>
<path fill-rule="evenodd" clip-rule="evenodd" d="M3 5C1.34315 5 0 6.34315 0 8V20C0 21.6569 1.34314 23 3 23H21C22.6569 23 24 21.6569 24 20V8C24 6.34315 22.6569 5 21 5H3ZM22 8C22 7.44772 21.5523 7 21 7H3C2.44772 7 2 7.44772 2 8H22ZM2 10H22V20C22 20.5523 21.5523 21 21 21H3C2.44772 21 2 20.5523 2 20V10Z" fill="#C9500C"/>
</svg>
